<svg id="レイヤー_1" data-name="レイヤー 1" xmlns="http://www.w3.org/2000/svg" viewBox="0 0 99.56 28.56"><defs><style>.cls-1{fill:#fff;}</style></defs><path class="cls-1" d="M17,22.25a30.75,30.75,0,0,0-4-.17H5.44c-1.83,0-2.5,0-3.53.07a22.66,22.66,0,0,0,.19-3.5V5.54A26,26,0,0,0,1.91,2c1,0,1.66.07,3.53.07H13.1a29.35,29.35,0,0,0,3.57-.17V6.43a29.35,29.35,0,0,0-3.57-.17H6.85V9.79H12a27.68,27.68,0,0,0,3.6-.17v4.44a29.56,29.56,0,0,0-3.6-.17H6.85v4h6.2A32.39,32.39,0,0,0,17,17.76Z"/><path class="cls-1" d="M30.4,21.31c0-.14,0-.31,0-.53a6.74,6.74,0,0,1-4.85,1.73c-4.36,0-7-2.93-7-7.78a8.1,8.1,0,0,1,2.06-5.85A6.66,6.66,0,0,1,25.5,7a7.15,7.15,0,0,1,4.92,1.77c0-.36,0-.57,0-.91v-2a27.39,27.39,0,0,0-.19-3.77h4.92a26.06,26.06,0,0,0-.19,3.77V18.31a27.54,27.54,0,0,0,.19,3.77H30.4Zm-7.18-6.55a4.31,4.31,0,0,0,1.11,3.17,3.33,3.33,0,0,0,2.32.91c2.14,0,3.7-1.78,3.7-4.15a3.73,3.73,0,0,0-3.72-4C24.54,10.68,23.22,12.24,23.22,14.76Z"/><path class="cls-1" d="M40.86,21.67a4.37,4.37,0,0,0,3.65,1.63,3.72,3.72,0,0,0,2.93-1.05,3.85,3.85,0,0,0,.77-2.57,6,6,0,0,1-4.37,1.58c-4.18,0-6.82-2.73-6.82-7.1s2.71-7.08,6.82-7.08a6.69,6.69,0,0,1,4.37,1.39v-1h4.7a23.29,23.29,0,0,0-.19,3.33V19.2c0,2.88-.82,4.82-2.5,6a10.13,10.13,0,0,1-5.71,1.42c-3.26,0-5.42-.82-7.1-2.67Zm3.87-3.86a3.39,3.39,0,0,0,3.38-3.65,3.4,3.4,0,0,0-3.36-3.67c-1.92,0-3.17,1.46-3.17,3.69S42.83,17.81,44.73,17.81Z"/><path class="cls-1" d="M59.25,16.1a3,3,0,0,0,3.26,3,3.47,3.47,0,0,0,2.42-.89A2.36,2.36,0,0,0,65.65,17l4.18,1.17a7.07,7.07,0,0,1-1.58,2.48,7.83,7.83,0,0,1-5.67,2,7.55,7.55,0,0,1-5.57-2,8.19,8.19,0,0,1-2.18-5.86c0-4.75,3.05-7.9,7.63-7.9a6.89,6.89,0,0,1,7.2,5.62A16.58,16.58,0,0,1,70,15.62a3.46,3.46,0,0,0,0,.48Zm6.24-3.31a2.8,2.8,0,0,0-3-2.35,2.9,2.9,0,0,0-3.14,2.35Z"/><path class="cls-1" d="M76.17,17.18c.24,1.25,1,1.8,2.66,1.8,1.44,0,2.26-.41,2.26-1.15a1,1,0,0,0-.53-.86,6.15,6.15,0,0,0-2-.56A29.28,29.28,0,0,1,75,15.55a4.57,4.57,0,0,1-2.4-1.7,4.51,4.51,0,0,1-.6-2.28c0-2.88,2.42-4.64,6.43-4.64a7.37,7.37,0,0,1,5.11,1.54,5,5,0,0,1,1.56,2.74l-4.63.5c-.12-1-.72-1.42-2-1.42s-2,.41-2,1,.5.88,2.88,1.41a15,15,0,0,1,3.93,1.15,3.78,3.78,0,0,1,2.31,3.68,4.37,4.37,0,0,1-1.23,3.19c-1.15,1.15-3.12,1.75-5.68,1.75-3,0-5.16-.81-6.32-2.4a5.57,5.57,0,0,1-1-2.4Z"/><path class="cls-1" d="M89.56,6.93a24.94,24.94,0,0,0-.19-3.28h4.89a27.74,27.74,0,0,0-.19,3.28v.51h.86a17.48,17.48,0,0,0,2.36-.12v4a16.55,16.55,0,0,0-2.21-.14h-1V17.3c0,.67.12,1,.43,1.23a2.1,2.1,0,0,0,1.11.26,3.34,3.34,0,0,0,1.68-.43L97.65,22a10.53,10.53,0,0,1-3.32.48,5.79,5.79,0,0,1-3.52-.84c-.92-.7-1.25-1.51-1.25-3.15V11.16h-.91a15.38,15.38,0,0,0-2.09.14v-4a13.77,13.77,0,0,0,2.13.15h.87Z"/></svg>